# xmcd CD database file
#
# Track frame offsets:
#	183
#	20528
#	44110
#	64005
#	86198
#	107218
#	128003
#	150158
#	173028
#	193950
#	217230
#	238035
#
# Disc length: 3459 seconds
#
# Revision: 0
# Processed by: cddbd v1.5.2PL0 Copyright (c) Steve Scherf et al.
# Submitted via: CDex 1.50Beta7
#
DISCID=ac0d810c
DTITLE=Various Artist - Los Bravos de la Salsa
DYEAR=1989
DGENRE=Salsa
TTITLE0=Frankie Ruiz - Quiero llenarte
TTITLE1=Andy Montañez - Genio y figura
TTITLE2=Tommy Olivencia y su orquesta - Periquito pin pin
TTITLE3=Frankie Ruiz - La cura
TTITLE4=Tommy Olivencia y su orquesta - El del tabacón
TTITLE5=Andy Montañez - Dulce veneno
TTITLE6=Tommy Olivencia y su orquesta - No tires la primera piedra
TTITLE7=Frankie Ruiz - Como lo hacen
TTITLE8=Andy Andito y Harold - El benjamín
TTITLE9=Tommy Olivencia y su orquesta - Lo dudo
TTITLE10=Andy Montañez - Payaso
TTITLE11=Frankie Ruiz - Primero fui yo
EXTD=YEAR: 1989
EXTT0=
EXTT1=
EXTT2=
EXTT3=
EXTT4=
EXTT5=
EXTT6=
EXTT7=
EXTT8=
EXTT9=
EXTT10=
EXTT11=
PLAYORDER=
